<?xml version="1.0" encoding="UTF-8"?>
<svg xmlns="http://www.w3.org/2000/svg" width="256" height="256" viewBox="0 0 256 256">
  <defs>
    <linearGradient id="g" x1="0" y1="0" x2="1" y2="1">
      <stop offset="0" stop-color="#5b6ef5"/>
      <stop offset="1" stop-color="#3d52e0"/>
    </linearGradient>
    <filter id="s" x="-20%" y="-20%" width="140%" height="140%">
      <feDropShadow dx="0" dy="8" stdDeviation="10" flood-color="#000000" flood-opacity="0.25"/>
    </filter>
  </defs>
  <rect x="24" y="24" width="208" height="208" rx="48" fill="url(#g)" filter="url(#s)"/>
  <path d="M76 140c0-33 23-60 52-60s52 27 52 60-23 60-52 60-52-27-52-60Z" fill="#ffffff" opacity="0.18"/>
  <path d="M92 150c0-26 17-46 36-46s36 20 36 46-17 46-36 46-36-20-36-46Z" fill="#ffffff" opacity="0.22"/>
  <path d="M84 116c10-19 31-32 56-32 18 0 34 6 45 16l-16 16c-7-6-17-10-29-10-17 0-31 7-38 18l-18-8Z" fill="#ffffff"/>
  <circle cx="92" cy="120" r="10" fill="#ffffff"/>
  <path d="M172 126v50c0 6-5 10-11 8l-22-8-22 8c-6 2-11-2-11-8v-50c0-3 1-5 3-7 18 10 42 10 60 0 2 2 3 4 3 7Z" fill="#ffffff"/>
</svg>
